HIERARCHY
ROOT Root
{
  OFFSET 0.0 0.0 0.0
  CHANNELS 6 Xposition Yposition Zposition Zrotation Yrotation Xrotation
  JOINT Hips
  {
    OFFSET 0.0 100.0 0.0
    CHANNELS 6 Xposition Yposition Zposition Zrotation Yrotation Xrotation
    JOINT Spine1
    {
      OFFSET 5.003913 -0.037094 -0.013727
      CHANNELS 3 Zrotation Yrotation Xrotation
      JOINT Spine2
      {
        OFFSET 7.125363 -1e-06 0.0
        CHANNELS 3 Zrotation Yrotation Xrotation
        JOINT Chest
        {
          OFFSET 7.594027 1e-06 0.0
          CHANNELS 3 Zrotation Yrotation Xrotation
          JOINT Neck1
          {
            OFFSET 26.313086 -0.460272 -0.181672
            CHANNELS 3 Zrotation Yrotation Xrotation
            JOINT Neck2
            {
              OFFSET 8.045911 0.0 0.0
              CHANNELS 3 Zrotation Yrotation Xrotation
              JOINT Head
              {
                OFFSET 6.432774 0.0 0.0
                CHANNELS 3 Zrotation Yrotation Xrotation
                JOINT HeadEnd
                {
                  OFFSET 16.169773 0.06451 0.00362
                  CHANNELS 3 Zrotation Yrotation Xrotation
                }
                JOINT Jaw
                {
                  OFFSET 0.108741 3.12938 0.002639
                  CHANNELS 3 Zrotation Yrotation Xrotation
                }
                JOINT LeftEye
                {
                  OFFSET 4.45173 8.166359 3.206392
                  CHANNELS 3 Zrotation Yrotation Xrotation
                }
                JOINT RightEye
                {
                  OFFSET 4.436895 8.135758 -3.222429
                  CHANNELS 3 Zrotation Yrotation Xrotation
                }
              }
            }
          }
          JOINT LeftShoulder
          {
            OFFSET 23.218927 5.195579 1.621656
            CHANNELS 3 Zrotation Yrotation Xrotation
            JOINT LeftArm
            {
              OFFSET 15.902118 2e-06 -2e-06
              CHANNELS 3 Zrotation Yrotation Xrotation
              JOINT LeftForeArm
              {
                OFFSET 28.739307 0.0 -1e-06
                CHANNELS 3 Zrotation Yrotation Xrotation
                JOINT LeftHand
                {
                  OFFSET 27.093981 -4e-06 0.0
                  CHANNELS 3 Zrotation Yrotation Xrotation
                  JOINT LeftHandThumb1
                  {
                    OFFSET 2.276781 3.380274 0.83384
                    CHANNELS 3 Zrotation Yrotation Xrotation
                    JOINT LeftHandThumb2
                    {
                      OFFSET 4.705309 -1e-06 -1e-06
                      CHANNELS 3 Zrotation Yrotation Xrotation
                      JOINT LeftHandThumb3
                      {
                        OFFSET 2.798515 0.0 3e-06
                        CHANNELS 3 Zrotation Yrotation Xrotation
                        JOINT LeftHandThumbEnd
                        {
                          OFFSET 3.180793 4e-06 -4e-06
                          CHANNELS 3 Zrotation Yrotation Xrotation
                        }
                      }
                    }
                  }
                  JOINT LeftHandIndex1
                  {
                    OFFSET 3.247786 2.352677 0.137192
                    CHANNELS 3 Zrotation Yrotation Xrotation
                    JOINT LeftHandIndex2
                    {
                      OFFSET 6.367095 1e-06 0.0
                      CHANNELS 3 Zrotation Yrotation Xrotation
                      JOINT LeftHandIndex3
                      {
                        OFFSET 3.662364 0.0 0.0
                        CHANNELS 3 Zrotation Yrotation Xrotation
                        JOINT LeftHandIndex4
                        {
                          OFFSET 2.329242 4e-06 -4e-06
                          CHANNELS 3 Zrotation Yrotation Xrotation
                          JOINT LeftHandIndexEnd
                          {
                            OFFSET 2.767823 1e-06 0.0
                            CHANNELS 3 Zrotation Yrotation Xrotation
                          }
                        }
                      }
                    }
                  }
                  JOINT LeftHandMiddle1
                  {
                    OFFSET 3.163612 0.945023 -0.406112
                    CHANNELS 3 Zrotation Yrotation Xrotation
                    JOINT LeftHandMiddle2
                    {
                      OFFSET 6.276789 3e-06 0.0
                      CHANNELS 3 Zrotation Yrotation Xrotation
                      JOINT LeftHandMiddle3
                      {
                        OFFSET 4.35652 -1e-06 4e-06
                        CHANNELS 3 Zrotation Yrotation Xrotation
                        JOINT LeftHandMiddle4
                        {
                          OFFSET 2.996877 0.0 8e-06
                          CHANNELS 3 Zrotation Yrotation Xrotation
                          JOINT LeftHandMiddleEnd
                          {
                            OFFSET 2.323256 3e-06 -4e-06
                            CHANNELS 3 Zrotation Yrotation Xrotation
                          }
                        }
                      }
                    }
                  }
                  JOINT LeftHandRing1
                  {
                    OFFSET 2.882606 -0.309162 0.107445
                    CHANNELS 3 Zrotation Yrotation Xrotation
                    JOINT LeftHandRing2
                    {
                      OFFSET 6.033198 0.0 4e-06
                      CHANNELS 3 Zrotation Yrotation Xrotation
                      JOINT LeftHandRing3
                      {
                        OFFSET 4.350578 3e-06 0.0
                        CHANNELS 3 Zrotation Yrotation Xrotation
                        JOINT LeftHandRing4
                        {
                          OFFSET 2.651321 2e-06 -7e-06
                          CHANNELS 3 Zrotation Yrotation Xrotation
                          JOINT LeftHandRingEnd
                          {
                            OFFSET 1.937663 1e-06 -4e-06
                            CHANNELS 3 Zrotation Yrotation Xrotation
                          }
                        }
                      }
                    }
                  }
                  JOINT LeftHandPinky1
                  {
                    OFFSET 2.865315 -1.525436 0.575687
                    CHANNELS 3 Zrotation Yrotation Xrotation
                    JOINT LeftHandPinky2
                    {
                      OFFSET 5.54936 1e-06 -8e-06
                      CHANNELS 3 Zrotation Yrotation Xrotation
                      JOINT LeftHandPinky3
                      {
                        OFFSET 3.070974 0.0 -4e-06
                        CHANNELS 3 Zrotation Yrotation Xrotation
                        JOINT LeftHandPinky4
                        {
                          OFFSET 1.549672 1e-06 0.0
                          CHANNELS 3 Zrotation Yrotation Xrotation
                          JOINT LeftHandPinkyEnd
                          {
                            OFFSET 1.952123 0.0 0.0
                            CHANNELS 3 Zrotation Yrotation Xrotation
                          }
                        }
                      }
                    }
                  }
                }
              }
            }
          }
          JOINT RightShoulder
          {
            OFFSET 23.161716 5.296122 -1.380114
            CHANNELS 3 Zrotation Yrotation Xrotation
            JOINT RightArm
            {
              OFFSET -16.027195 -2e-06 1.1e-05
              CHANNELS 3 Zrotation Yrotation Xrotation
              JOINT RightForeArm
              {
                OFFSET -28.736639 4e-06 2e-06
                CHANNELS 3 Zrotation Yrotation Xrotation
                JOINT RightHand
                {
                  OFFSET -27.133619 6e-06 0.0
                  CHANNELS 3 Zrotation Yrotation Xrotation
                  JOINT RightHandThumb1
                  {
                    OFFSET -2.274328 -3.351035 -0.83067
                    CHANNELS 3 Zrotation Yrotation Xrotation
                    JOINT RightHandThumb2
                    {
                      OFFSET -4.703594 -3e-06 2e-06
                      CHANNELS 3 Zrotation Yrotation Xrotation
                      JOINT RightHandThumb3
                      {
                        OFFSET -2.794935 -4e-06 -3e-06
                        CHANNELS 3 Zrotation Yrotation Xrotation
                        JOINT RightHandThumbEnd
                        {
                          OFFSET -3.183852 4e-06 1e-06
                          CHANNELS 3 Zrotation Yrotation Xrotation
                        }
                      }
                    }
                  }
                  JOINT RightHandIndex1
                  {
                    OFFSET -3.253496 -2.33755 -0.127667
                    CHANNELS 3 Zrotation Yrotation Xrotation
                    JOINT RightHandIndex2
                    {
                      OFFSET -6.344434 0.0 0.0
                      CHANNELS 3 Zrotation Yrotation Xrotation
                      JOINT RightHandIndex3
                      {
                        OFFSET -3.654871 0.0 -8e-06
                        CHANNELS 3 Zrotation Yrotation Xrotation
                        JOINT RightHandIndex4
                        {
                          OFFSET -2.327586 -1e-06 0.0
                          CHANNELS 3 Zrotation Yrotation Xrotation
                          JOINT RightHandIndexEnd
                          {
                            OFFSET -2.770001 3e-06 8e-06
                            CHANNELS 3 Zrotation Yrotation Xrotation
                          }
                        }
                      }
                    }
                  }
                  JOINT RightHandMiddle1
                  {
                    OFFSET -3.168223 -0.944764 0.411762
                    CHANNELS 3 Zrotation Yrotation Xrotation
                    JOINT RightHandMiddle2
                    {
                      OFFSET -6.266691 -1e-06 -4e-06
                      CHANNELS 3 Zrotation Yrotation Xrotation
                      JOINT RightHandMiddle3
                      {
                        OFFSET -4.348901 0.0 0.0
                        CHANNELS 3 Zrotation Yrotation Xrotation
                        JOINT RightHandMiddle4
                        {
                          OFFSET -3.00024 2e-06 -4e-06
                          CHANNELS 3 Zrotation Yrotation Xrotation
                          JOINT RightHandMiddleEnd
                          {
                            OFFSET -2.321477 -4e-06 -4e-06
                            CHANNELS 3 Zrotation Yrotation Xrotation
                          }
                        }
                      }
                    }
                  }
                  JOINT RightHandRing1
                  {
                    OFFSET -2.885654 0.293261 -0.119232
                    CHANNELS 3 Zrotation Yrotation Xrotation
                    JOINT RightHandRing2
                    {
                      OFFSET -6.032835 -1e-06 -4e-06
                      CHANNELS 3 Zrotation Yrotation Xrotation
                      JOINT RightHandRing3
                      {
                        OFFSET -4.33881 0.0 -4e-06
                        CHANNELS 3 Zrotation Yrotation Xrotation
                        JOINT RightHandRing4
                        {
                          OFFSET -2.654903 -4e-06 -4e-06
                          CHANNELS 3 Zrotation Yrotation Xrotation
                          JOINT RightHandRingEnd
                          {
                            OFFSET -1.935122 0.0 4e-06
                            CHANNELS 3 Zrotation Yrotation Xrotation
                          }
                        }
                      }
                    }
                  }
                  JOINT RightHandPinky1
                  {
                    OFFSET -2.866241 1.503904 -0.60527
                    CHANNELS 3 Zrotation Yrotation Xrotation
                    JOINT RightHandPinky2
                    {
                      OFFSET -5.553177 -2e-06 0.0
                      CHANNELS 3 Zrotation Yrotation Xrotation
                      JOINT RightHandPinky3
                      {
                        OFFSET -3.062664 -1e-06 -4e-06
                        CHANNELS 3 Zrotation Yrotation Xrotation
                        JOINT RightHandPinky4
                        {
                          OFFSET -1.546529 2e-06 4e-06
                          CHANNELS 3 Zrotation Yrotation Xrotation
                          JOINT RightHandPinkyEnd
                          {
                            OFFSET -1.952341 0.0 -4e-06
                            CHANNELS 3 Zrotation Yrotation Xrotation
                          }
                        }
                      }
                    }
                  }
                }
              }
            }
          }
        }
      }
    }
    JOINT LeftLeg
    {
      OFFSET -8.443107 2.567604 10.043214
      CHANNELS 3 Zrotation Yrotation Xrotation
      JOINT LeftShin
      {
        OFFSET 43.229198 1e-06 -1e-06
        CHANNELS 3 Zrotation Yrotation Xrotation
        JOINT LeftFoot
        {
          OFFSET 42.298611 1e-06 1e-06
          CHANNELS 3 Zrotation Yrotation Xrotation
          JOINT LeftToeBase
          {
            OFFSET 14.165858 1e-06 0.0
            CHANNELS 3 Zrotation Yrotation Xrotation
            JOINT LeftToeEnd
            {
              OFFSET 6.7141 -0.234461 0.0
              CHANNELS 3 Zrotation Yrotation Xrotation
            }
          }
        }
      }
    }
    JOINT RightLeg
    {
      OFFSET -8.303923 2.592729 -10.047278
      CHANNELS 3 Zrotation Yrotation Xrotation
      JOINT RightShin
      {
        OFFSET -43.369682 0.0 1e-06
        CHANNELS 3 Zrotation Yrotation Xrotation
        JOINT RightFoot
        {
          OFFSET -42.260784 4e-06 2e-06
          CHANNELS 3 Zrotation Yrotation Xrotation
          JOINT RightToeBase
          {
            OFFSET -14.222245 -2e-06 -1e-06
            CHANNELS 3 Zrotation Yrotation Xrotation
            JOINT RightToeEnd
            {
              OFFSET -6.660062 0.232574 -2e-06
              CHANNELS 3 Zrotation Yrotation Xrotation
            }
          }
        }
      }
    }
  }
}
MOTION
Frames: 5
Frame Time: 0.03333333333333333
0.0 0.0 0.0 0.0 -0.0 0.0 1.27439 99.579521 5.598437 91.809608 1.545565 90.215622 -2.198271 0.026195 0.04265 -11.419926 -0.603175 0.315387 15.749194 -1.398918 -1.759508 21.810061 -0.216831 2.884781 -2.421821 -0.716012 2.508636 -24.763052 -1.991822 4.344736 6e-06 0.0 -0.0 -0.010165 0.032776 0.001181 0.005521 0.124011 0.013064 0.064905 -0.065387 0.000751 -148.407959 -67.671036 165.984222 25.073938 -49.10178 12.269915 27.32548 -0.180778 0.022065 5.043118 7.117532 10.7601 17.636625 -26.322729 52.411182 -19.46666 -14.395594 29.410385 -1e-06 -8.77482 -2e-06 15.636649 -18.187016 6.143237 -0.609776 -1.795654 -3.889328 -4.807087 -11.046807 -2.93785 5e-06 -20.976011 -1e-06 -5.019967 -25.033545 -4.031877 7e-06 2e-06 -2e-06 -10.634532 -5.686968 -3.565587 10.573274 -17.922951 -3.113897 2e-06 -13.821206 -0.0 -0.501776 -31.181498 -4.027015 -11.054047 -58.923851 6.910969 -13.982708 -7.150196 -2.875041 13.772726 -8.401493 -3.218242 0.347738 -34.211544 0.771649 -0.963027 -17.733366 2.621021 1e-06 -0.0 -0.0 -17.346415 -20.095211 -4.201777 21.757555 -1.638377 3.866428 1e-06 -6.338821 0.0 -1.697587 -22.591742 -6.194003 -1e-06 -5e-06 -0.0 17.860741 -63.118202 -178.519714 26.716284 -44.907578 6.313707 24.712008 -0.258513 0.054172 -0.783779 3.928037 14.332126 22.182117 -20.375895 49.933319 -16.701813 -16.74353 28.47653 -3e-06 -12.690601 -1e-06 16.177288 -17.545815 2.581756 -0.105919 -1.513855 -4.275882 -5.039041 -5.61287 -2.953556 5e-06 -11.020521 -1e-06 -6.111297 -15.89533 -3.84047 0.0 0.0 -1e-06 -10.283369 -5.680286 -4.341839 11.028294 -11.302406 -2.372635 -1.384269 -14.238579 -6.320118 -0.625436 -26.924189 -3.8276 -4.189474 -49.901558 -3.832854 -13.708522 -7.363474 -3.72094 18.141148 -14.05274 -3.242672 7e-06 -18.78727 -1e-06 -0.429713 -8.456043 2.555505 1e-06 -1e-06 -1e-06 -15.923532 -20.094482 -5.473588 30.41921 -7.190827 1.735926 2e-06 -8.162925 -2e-06 -1.8619 -22.861467 -6.167942 -3e-06 -2e-06 -1e-06 -174.788376 -3.46402 -4.369152 6.027291 -0.024718 -0.027997 -78.095436 -3.410695 -9.806499 -6.378639 1.598206 2.114638 -0.999999 0.0 0.0 0.487528 -8.319788 -2.678532 14.698723 -0.02789 0.067089 -82.719292 4.160703 -6.831436 -6.506837 0.652367 1.64411 -1.000002 -0.0 -0.0 
0.0 0.0 0.0 0.0 -0.0 0.0 1.349041 99.605667 5.683779 91.821457 1.537799 90.130211 -2.188616 0.000861 0.041854 -11.398668 -0.588149 0.366369 15.728763 -1.382252 -1.808932 21.794964 -0.187583 2.916674 -2.417965 -0.702843 2.509818 -24.802807 -2.020113 4.387416 6e-06 0.0 0.0 -0.015134 0.029051 0.014738 -0.012208 0.126192 0.026603 0.046019 -0.075001 0.013509 -148.394547 -67.753609 165.951324 25.109047 -49.183815 12.103734 27.297554 -0.259203 -0.021154 5.094769 6.965043 11.069576 17.636631 -26.322729 52.411179 -19.466665 -14.395598 29.410389 -1e-06 -8.774822 1e-06 15.673535 -18.157337 6.123596 -0.609777 -1.795655 -3.889329 -4.807088 -11.046812 -2.93785 6e-06 -20.976017 -2e-06 -5.019972 -25.033556 -4.031876 5e-06 3e-06 -0.0 -10.634533 -5.686971 -3.565585 10.573274 -17.922951 -3.113898 1e-06 -13.821208 0.0 -0.501778 -31.181501 -4.027012 -11.101477 -58.965992 7.054489 -13.982714 -7.150198 -2.87504 13.772731 -8.401493 -3.218241 0.347738 -34.211555 0.77165 -0.963028 -17.733372 2.621022 1e-06 0.0 -1e-06 -17.34642 -20.095219 -4.201779 21.757559 -1.638375 3.866426 2e-06 -6.338823 -1e-06 -1.697587 -22.591747 -6.194008 -2e-06 -3e-06 -1e-06 17.873655 -63.142742 -178.478622 26.548981 -44.938419 6.284068 24.691122 -0.255502 0.032198 -0.718753 3.914459 14.297498 22.182116 -20.375893 49.933319 -16.701817 -16.74353 28.47653 -3e-06 -12.690601 1e-06 16.225462 -17.55372 2.558074 -0.10592 -1.513857 -4.275881 -5.039041 -5.612873 -2.953557 4e-06 -11.020525 -3e-06 -6.111298 -15.895334 -3.84047 -0.0 0.0 -1e-06 -10.28337 -5.680288 -4.341841 11.028296 -11.302404 -2.372634 -1.384267 -14.238581 -6.320122 -0.625437 -26.924187 -3.827598 -4.202627 -50.033546 -3.789727 -13.708524 -7.363477 -3.720942 18.141148 -14.052739 -3.242674 7e-06 -18.78727 -4e-06 -0.429713 -8.456043 2.555504 -1e-06 0.0 -1e-06 -15.923536 -20.094484 -5.473584 30.419218 -7.190827 1.735924 3e-06 -8.162926 0.0 -1.861901 -22.861473 -6.167943 -2e-06 -2e-06 -3e-06 -174.5616 -3.359672 -4.363641 5.641957 -0.012914 0.026735 -77.908287 -3.499604 -9.822602 -6.412077 1.617185 2.12166 -0.999999 0.0 0.0 0.726269 -8.37673 -2.684545 14.269135 -0.02941 0.071672 -82.550102 4.173762 -6.83783 -6.607958 0.624355 1.638336 -1.000001 -0.0 -0.0 
0.0 0.0 0.0 0.0 -0.0 0.0 1.425355 99.611458 5.729916 91.840431 1.541433 90.030609 -2.178518 -0.01934 0.037182 -11.393104 -0.589418 0.391005 15.775336 -1.3572 -1.812106 21.746841 -0.182234 2.959783 -2.455409 -0.674302 2.484462 -24.803648 -2.055105 4.451465 6e-06 0.0 0.0 -0.020716 0.028134 0.01114 -0.035318 0.124963 0.027179 0.024291 -0.075737 0.0048 -148.409134 -67.81472 165.961807 25.136028 -49.230164 11.968818 27.307543 -0.313368 -0.065414 5.090351 6.862339 11.194741 17.636621 -26.322733 52.411201 -19.466656 -14.395597 29.410389 -0.0 -8.774821 1e-06 15.709706 -18.185143 6.105017 -0.609776 -1.795653 -3.889325 -4.80709 -11.046813 -2.937847 2e-06 -20.976017 -2e-06 -5.019973 -25.033556 -4.031882 5e-06 3e-06 1e-06 -10.634532 -5.686971 -3.565588 10.573272 -17.922951 -3.113897 -0.0 -13.821208 -0.0 -0.50178 -31.181501 -4.027016 -11.176297 -58.990055 7.103662 -13.982712 -7.150197 -2.87504 13.772727 -8.40149 -3.218243 0.347734 -34.211544 0.771651 -0.963031 -17.733366 2.621021 1e-06 -0.0 -0.0 -17.346416 -20.095217 -4.201783 21.757555 -1.638372 3.866425 2e-06 -6.338822 -0.0 -1.697591 -22.591747 -6.194005 -2e-06 -3e-06 1e-06 17.817907 -63.126774 -178.397583 26.383081 -44.896324 6.290153 24.674681 -0.26055 0.006207 -0.686183 3.921946 14.24626 22.182112 -20.375887 49.933308 -16.701807 -16.74353 28.476524 -2e-06 -12.690601 1e-06 16.2453 -17.522009 2.552342 -0.105919 -1.513856 -4.27588 -5.039042 -5.612872 -2.953555 3e-06 -11.020523 -1e-06 -6.111298 -15.895332 -3.840472 -0.0 0.0 -1e-06 -10.283369 -5.680288 -4.341837 11.028294 -11.302402 -2.372634 -1.384271 -14.23858 -6.32012 -0.62544 -26.924187 -3.8276 -4.206669 -50.075882 -3.773878 -13.708525 -7.363477 -3.720937 18.141148 -14.052734 -3.242675 5e-06 -18.787266 -1e-06 -0.429714 -8.456041 2.555505 2e-06 -1e-06 -0.0 -15.923536 -20.094482 -5.47358 30.41921 -7.190823 1.735925 3e-06 -8.162924 -1e-06 -1.861903 -22.861467 -6.167942 -1e-06 -4e-06 -2e-06 -174.477234 -3.30183 -4.364252 5.541685 -0.008529 0.062112 -77.860336 -3.566099 -9.84525 -6.402392 1.62268 2.127913 -0.999999 -0.0 0.0 0.812912 -8.45846 -2.689805 14.112555 -0.022921 0.069695 -82.487671 4.225779 -6.902799 -6.610016 0.60796 1.63446 -1.000001 0.0 0.0 
0.0 0.0 0.0 0.0 -0.0 0.0 1.490354 99.60936 5.741624 91.857956 1.564048 89.917664 -2.154188 -0.044484 0.034662 -11.396685 -0.589992 0.399358 15.841554 -1.334494 -1.782916 21.705547 -0.181749 2.983886 -2.49939 -0.661006 2.488752 -24.833872 -2.066813 4.486772 6e-06 0.0 -0.0 -0.025949 0.027792 0.009268 -0.05843 0.120911 0.029767 0.002437 -0.07249 -0.002244 -148.402924 -67.85305 165.95224 25.177528 -49.253895 11.930782 27.311106 -0.328309 -0.083481 5.081393 6.876622 11.252713 17.636623 -26.322733 52.411194 -19.46666 -14.395594 29.410393 -0.0 -8.774819 1e-06 15.720597 -18.19211 6.095777 -0.609778 -1.795655 -3.889328 -4.807088 -11.046809 -2.937849 3e-06 -20.976015 -2e-06 -5.019973 -25.033556 -4.031879 6e-06 3e-06 0.0 -10.634532 -5.686972 -3.565588 10.573271 -17.922949 -3.113901 2e-06 -13.821208 -1e-06 -0.501776 -31.181501 -4.027015 -11.203427 -58.999878 7.114415 -13.982711 -7.150198 -2.87504 13.772726 -8.401491 -3.218242 0.347735 -34.211552 0.77165 -0.963031 -17.733366 2.62102 1e-06 -0.0 -0.0 -17.346413 -20.095217 -4.201786 21.757555 -1.638374 3.866428 1e-06 -6.338821 -0.0 -1.697589 -22.59174 -6.194008 2e-06 -5e-06 -1e-06 17.759434 -63.114014 -178.333618 26.259808 -44.848236 6.404325 24.654716 -0.23697 -0.003429 -0.696168 3.895501 14.190264 22.182116 -20.375891 49.933315 -16.701809 -16.743528 28.476522 -1e-06 -12.6906 -0.0 16.245874 -17.486708 2.555688 -0.105919 -1.513853 -4.275882 -5.039042 -5.612872 -2.953557 3e-06 -11.020523 -1e-06 -6.111298 -15.895332 -3.84047 0.0 0.0 -0.0 -10.283369 -5.680287 -4.34184 11.028294 -11.302404 -2.372633 -1.38427 -14.23858 -6.320119 -0.625441 -26.924185 -3.8276 -4.220805 -50.055202 -3.742178 -13.708526 -7.363477 -3.720944 18.141148 -14.052739 -3.242674 4e-06 -18.78727 -2e-06 -0.429711 -8.456043 2.555503 0.0 -1e-06 -0.0 -15.923536 -20.094482 -5.473586 30.41921 -7.190826 1.735928 2e-06 -8.162925 -3e-06 -1.861903 -22.861469 -6.167942 0.0 -2e-06 -1e-06 -174.4254 -3.248428 -4.406128 5.542333 -0.009548 0.079353 -77.869812 -3.644431 -9.854989 -6.392248 1.625403 2.130681 -0.999999 0.0 0.0 0.825989 -8.536804 -2.702029 14.092538 -0.019151 0.061659 -82.467422 4.311352 -6.974634 -6.597119 0.593107 1.629509 -1.000003 0.0 -0.0 
0.0 0.0 0.0 0.0 -0.0 0.0 1.545142 99.607262 5.739634 91.873329 1.576798 89.815041 -2.134374 -0.070186 0.042684 -11.399003 -0.590721 0.399577 15.897725 -1.321041 -1.762462 21.664364 -0.157995 2.98609 -2.524333 -0.648631 2.528396 -24.914383 -2.070266 4.517407 6e-06 0.0 -0.0 -0.025952 0.027871 0.010661 -0.069849 0.119633 0.033608 -0.010559 -0.070929 -0.003705 -148.36084 -67.881065 165.916183 25.270681 -49.266632 11.884663 27.274464 -0.335542 -0.08857 5.069568 6.953792 11.316335 17.636631 -26.322729 52.411182 -19.46666 -14.395596 29.410385 -1e-06 -8.774822 0.0 15.691699 -18.174334 6.103277 -0.609775 -1.795654 -3.889327 -4.807088 -11.046811 -2.937852 4e-06 -20.976015 -2e-06 -5.01997 -25.033556 -4.03188 6e-06 2e-06 1e-06 -10.634532 -5.686968 -3.565585 10.573272 -17.922949 -3.113902 1e-06 -13.821206 -0.0 -0.501777 -31.181498 -4.027016 -11.193949 -58.96521 7.121046 -13.982712 -7.150198 -2.87504 13.77273 -8.401491 -3.218241 0.347736 -34.211552 0.771648 -0.963028 -17.73337 2.621021 1e-06 -0.0 -0.0 -17.346416 -20.095217 -4.20178 21.757557 -1.638375 3.866427 2e-06 -6.338823 1e-06 -1.697588 -22.591743 -6.194006 -2e-06 -4e-06 -1e-06 17.688147 -63.090828 -178.268188 26.179104 -44.785805 6.59261 24.605307 -0.203659 0.00104 -0.716004 3.860859 14.177311 22.182121 -20.375891 49.933323 -16.701813 -16.74353 28.476532 -2e-06 -12.690603 -2e-06 16.235144 -17.457003 2.562348 -0.105919 -1.513856 -4.27588 -5.039042 -5.612873 -2.953557 3e-06 -11.020525 -1e-06 -6.1113 -15.895334 -3.840472 0.0 0.0 -0.0 -10.283373 -5.680288 -4.341838 11.028297 -11.302406 -2.372634 -1.384269 -14.238583 -6.320122 -0.625436 -26.924194 -3.827601 -4.223868 -50.01186 -3.724422 -13.708527 -7.363477 -3.720938 18.141151 -14.05274 -3.242674 6e-06 -18.78727 -3e-06 -0.429711 -8.456043 2.5555 2e-06 0.0 -1e-06 -15.923541 -20.094484 -5.473581 30.419218 -7.190827 1.735928 2e-06 -8.162925 -2e-06 -1.861903 -22.861471 -6.167942 1e-06 -3e-06 -1e-06 -174.397278 -3.198047 -4.450472 5.558625 -0.014273 0.079694 -77.884224 -3.716295 -9.843865 -6.369067 1.62522 2.12978 -0.999999 0.0 -0.0 0.80639 -8.608722 -2.738139 14.103023 -0.015424 0.059043 -82.454544 4.429345 -7.051468 -6.571376 0.584206 1.626937 -1.000002 -0.0 0.0 
